<?xml version="1.0" encoding="UTF-8" standalone="no"?>
<!-- Created with Inkscape (http://www.inkscape.org/) -->

<svg
   width="70.025452mm"
   height="18.956179mm"
   viewBox="0 0 70.025452 18.956179"
   version="1.1"
   id="svg1"
   xml:space="preserve"
   inkscape:version="1.3.2 (091e20e, 2023-11-25, custom)"
   sodipodi:docname="maptober_logo.svg"
   inkscape:export-filename="maptober_logo.png"
   inkscape:export-xdpi="48"
   inkscape:export-ydpi="48"
   xmlns:inkscape="http://www.inkscape.org/namespaces/inkscape"
   xmlns:sodipodi="http://sodipodi.sourceforge.net/DTD/sodipodi-0.dtd"
   xmlns="http://www.w3.org/2000/svg"
   xmlns:svg="http://www.w3.org/2000/svg"><sodipodi:namedview
     id="namedview1"
     pagecolor="#ffffff"
     bordercolor="#666666"
     borderopacity="1.0"
     inkscape:showpageshadow="2"
     inkscape:pageopacity="0.0"
     inkscape:pagecheckerboard="0"
     inkscape:deskcolor="#d1d1d1"
     inkscape:document-units="mm"
     showguides="true"
     inkscape:zoom="0.83"
     inkscape:cx="-75.903614"
     inkscape:cy="-65.060241"
     inkscape:window-width="1920"
     inkscape:window-height="1057"
     inkscape:window-x="-8"
     inkscape:window-y="-8"
     inkscape:window-maximized="1"
     inkscape:current-layer="layer1"><sodipodi:guide
       position="48.55437,294.97442"
       orientation="0,-1"
       id="guide3"
       inkscape:locked="false" /><sodipodi:guide
       position="36.83369,280.0694"
       orientation="0,-1"
       id="guide4"
       inkscape:locked="false" /><sodipodi:guide
       position="45.97752,297"
       orientation="0,-1"
       id="guide6"
       inkscape:locked="false" /><sodipodi:guide
       position="34.56425,278.04382"
       orientation="0,-1"
       id="guide7"
       inkscape:locked="false" /></sodipodi:namedview><defs
     id="defs1" /><g
     inkscape:label="Warstwa 1"
     inkscape:groupmode="layer"
     id="layer1"
     transform="translate(-110.85347,-111.54836)"><g
       id="g8"
       inkscape:export-filename="g8.svg"
       inkscape:export-xdpi="48"
       inkscape:export-ydpi="48"><rect
         style="fill:#ffffff;stroke-width:0.264999;stroke-linecap:round;paint-order:fill markers stroke"
         id="rect8"
         width="70.025452"
         height="18.956179"
         x="110.85347"
         y="111.54836" /><path
         id="path20"
         style="font-size:24.0656px;line-height:1.25;font-family:'Viner Hand ITC';-inkscape-font-specification:'Viner Hand ITC, Normal';fill:#04bc42;fill-opacity:1;stroke:none;stroke-width:0.102809"
         d="m 152.1287,116.34329 c -1.14673,0 -2.03647,0.33677 -2.66961,1.00975 -0.63313,0.67298 -0.94981,1.61616 -0.94981,2.82929 0,0.77924 0.146,1.46093 0.43822,2.04535 0.19798,0.39598 0.45509,0.72844 0.76894,1.00046 l -0.0325,0.0434 -0.28887,0.40824 -0.12971,-0.0403 c -0.1139,-0.0357 -0.14843,-0.0373 -0.27906,-0.015 -0.28126,0.0471 -0.21255,-0.0345 -1.50481,1.79265 -1.27892,1.80875 -1.21095,1.69457 -1.16324,1.97352 0.0409,0.25118 0.0794,0.29323 0.64492,0.69195 0.47476,0.33457 0.56422,0.38399 0.72347,0.39636 h 5.2e-4 c 0.11508,0.009 0.29352,-0.0424 0.40153,-0.11627 0.0845,-0.0576 0.23885,-0.26502 1.23041,-1.6614 1.28597,-1.81441 1.23336,-1.72373 1.18391,-2.00505 -0.0223,-0.13019 -0.035,-0.16124 -0.10646,-0.25631 l -0.0811,-0.1111 0.38551,-0.52297 c 0.4207,0.15572 0.88284,0.23513 1.38803,0.23513 1.13786,0 2.02584,-0.34136 2.6634,-1.0232 0.63756,-0.68183 0.95602,-1.62677 0.95602,-2.83548 0,-0.77924 -0.146,-1.45915 -0.43822,-2.03915 -0.29221,-0.58001 -0.71064,-1.02488 -1.25522,-1.33481 -0.54459,-0.30992 -1.17337,-0.46508 -1.88619,-0.46508 z m -0.0264,1.634 c 0.54459,0 0.93656,0.18391 1.17564,0.55139 0.23908,0.36748 0.35864,0.91868 0.35864,1.65365 0,0.73939 -0.11956,1.29694 -0.35864,1.67328 -0.23466,0.37191 -0.62205,0.55811 -1.1622,0.55811 -0.54459,0 -0.93884,-0.18849 -1.18236,-0.56483 -0.23908,-0.37634 -0.35863,-0.9316 -0.35863,-1.66656 0,-0.73939 0.11955,-1.29059 0.35863,-1.65365 0.23909,-0.36748 0.62877,-0.55139 1.16892,-0.55139 z" /><path
         id="path46"
         style="font-weight:bold;font-size:13.6013px;line-height:1.25;font-family:'Open Sans';-inkscape-font-specification:'Open Sans, Bold';fill:#404a5d;fill-opacity:1;stroke-width:0.340032"
         d="m 129.27635,116.33037 c -1.04046,0 -1.98769,0.22358 -2.84221,0.67076 l 0.67076,1.36787 c 0.80138,-0.35862 1.49858,-0.53795 2.09187,-0.53795 0.77038,0 1.15548,0.37646 1.15548,1.12913 v 0.32556 l -1.28829,0.0398 c -1.1113,0.0399 -1.94357,0.24791 -2.49701,0.62425 -0.54901,0.37192 -0.82372,0.95186 -0.82372,1.73995 0,0.75267 0.20348,1.33261 0.61081,1.73995 0.41176,0.40733 0.97441,0.61133 1.68724,0.61133 0.58,0 1.04904,-0.0822 1.40767,-0.24598 0.36306,-0.16825 0.71535,-0.46712 1.05626,-0.89659 h 0.0527 l 0.39223,1.00924 h 1.41438 v -4.9475 c 0,-0.8855 -0.26555,-1.54531 -0.79685,-1.97921 -0.5313,-0.4339 -1.29514,-0.6506 -2.29133,-0.6506 z m 1.0759,4.13721 v 0.61133 c 0,0.44718 -0.14194,0.80583 -0.4253,1.07591 -0.27893,0.27008 -0.65257,0.40514 -1.12189,0.40514 -0.65527,0 -0.9834,-0.28564 -0.9834,-0.85679 0,-0.39848 0.14422,-0.69506 0.43201,-0.88987 0.28779,-0.19479 0.72579,-0.30111 1.31465,-0.31885 z" /><path
         id="path48"
         style="font-weight:bold;font-size:13.6013px;line-height:1.25;font-family:'Open Sans';-inkscape-font-specification:'Open Sans, Bold';fill:#404a5d;fill-opacity:1;stroke-width:0.340032"
         d="m 138.58069,116.34329 c -0.92978,0 -1.63156,0.36781 -2.1053,1.10277 h -0.093 l -0.28525,-0.96325 h -1.64745 v 10.69237 h 2.02572 v -3.00808 c 0,-0.0974 -0.0351,-0.45606 -0.10594,-1.07591 h 0.10594 c 0.49588,0.63314 1.17985,0.94982 2.05207,0.94982 0.58,0 1.08465,-0.15287 1.51412,-0.45837 0.42947,-0.3055 0.75938,-0.75038 0.9896,-1.3348 0.23466,-0.58444 0.35244,-1.27299 0.35244,-2.06551 0,-1.20428 -0.24826,-2.14516 -0.74414,-2.82257 -0.49588,-0.6774 -1.18215,-1.01647 -2.05879,-1.01647 z m -0.65061,1.62057 c 0.47818,0 0.82766,0.1839 1.04903,0.55139 0.22581,0.36305 0.339,0.90967 0.339,1.64021 0,1.49649 -0.45403,2.24482 -1.36167,2.24482 -0.5136,0 -0.89005,-0.17246 -1.12913,-0.5178 -0.23466,-0.34534 -0.35192,-0.91664 -0.35192,-1.71359 v -0.21911 c 0.009,-0.70839 0.1284,-1.21533 0.35864,-1.52083 0.23022,-0.30993 0.59575,-0.46509 1.09605,-0.46509 z" /><path
         id="path53"
         style="font-weight:bold;font-size:13.6013px;line-height:1.25;font-family:'Open Sans';-inkscape-font-specification:'Open Sans, Bold';fill:#404a5d;fill-opacity:1;stroke-width:0.340032"
         d="m 157.38212,113.57395 v 10.33373 h 1.5472 l 0.33899,-0.81649 h 0.13953 c 0.49588,0.63314 1.17985,0.94982 2.05207,0.94982 0.88107,0 1.57599,-0.33677 2.08515,-1.00976 0.51359,-0.67298 0.77049,-1.6225 0.77049,-2.84892 0,-1.19099 -0.24774,-2.12781 -0.74362,-2.80965 -0.49588,-0.68626 -1.18215,-1.02939 -2.05879,-1.02939 -0.92978,0 -1.63156,0.36781 -2.1053,1.10277 h -0.0796 c 0.0531,-0.67298 0.0796,-1.16212 0.0796,-1.46761 v -2.4045 z m 3.4799,4.38991 c 0.42947,0 0.76853,0.1839 1.01647,0.55139 0.24794,0.36305 0.37155,0.90967 0.37155,1.64021 0,0.73054 -0.12361,1.2886 -0.37155,1.6738 -0.24351,0.38076 -0.57342,0.57102 -0.9896,0.57102 -0.5136,0 -0.89005,-0.17246 -1.12913,-0.5178 -0.23466,-0.34534 -0.35192,-0.91664 -0.35192,-1.71359 v -0.21911 c 0.009,-0.70839 0.1284,-1.21533 0.35864,-1.52083 0.23022,-0.30993 0.59523,-0.46509 1.09554,-0.46509 z" /><path
         style="font-weight:bold;font-size:13.6013px;line-height:1.25;font-family:'Open Sans';-inkscape-font-specification:'Open Sans, Bold';fill:#404a5d;fill-opacity:1;stroke-width:0.340032"
         d="m 178.16929,116.34353 q 0.41176,0 0.68405,0.0598 l -0.15275,1.8994 q -0.24573,-0.0664 -0.59772,-0.0664 -0.96962,0 -1.5142,0.4981 -0.53794,0.49809 -0.53794,1.39466 v 3.77888 h -2.02559 v -7.42493 h 1.53413 l 0.29886,1.24856 h 0.0996 q 0.34534,-0.62428 0.92977,-1.00283 0.59108,-0.38519 1.28177,-0.38519 z"
         id="path57" /><path
         id="path56"
         style="font-weight:bold;font-size:13.6013px;line-height:1.25;font-family:'Open Sans';-inkscape-font-specification:'Open Sans, Bold';fill:#404a5d;fill-opacity:1;stroke-width:0.340032"
         d="m 169.05066,116.34329 c -1.09802,0 -1.95902,0.34136 -2.5833,1.02319 -0.61985,0.67741 -0.92966,1.63786 -0.92966,2.88199 0,1.20871 0.33626,2.14323 1.00924,2.80293 0.67299,0.6597 1.6075,0.98961 2.80293,0.98961 0.58,0 1.07142,-0.0448 1.47433,-0.13333 0.4029,-0.0841 0.78113,-0.21461 1.13533,-0.39171 v -1.56734 c -0.43389,0.20367 -0.85002,0.35196 -1.2485,0.44493 -0.39848,0.093 -0.82096,0.13953 -1.26814,0.13953 -0.57558,0 -1.02274,-0.16152 -1.34152,-0.48473 -0.31879,-0.3232 -0.48947,-0.77265 -0.5116,-1.34823 h 4.78834 v -0.98289 c 0,-1.05375 -0.292,-1.87966 -0.87643,-2.47737 -0.58443,-0.59771 -1.4017,-0.89658 -2.45102,-0.89658 z m 0.0134,1.44125 c 0.42947,0 0.7703,0.13736 1.02268,0.41186 0.25235,0.27008 0.38284,0.65518 0.3917,1.15549 h -2.8422 c 0.0354,-0.50031 0.17507,-0.88541 0.41858,-1.15549 0.24351,-0.2745 0.57977,-0.41186 1.00924,-0.41186 z" /><path
         style="font-weight:bold;font-size:13.6013px;line-height:1.25;font-family:'Open Sans';-inkscape-font-specification:'Open Sans, Bold';fill:#404a5d;fill-opacity:1;stroke-width:0.340032"
         d="m 146.18498,122.42692 q 0.5313,0 1.27512,-0.23244 v 1.50756 q -0.7571,0.33871 -1.85955,0.33871 -1.21535,0 -1.77322,-0.611 -0.55122,-0.61764 -0.55122,-1.84627 v -3.57964 h -0.96963 v -0.85672 l 1.11574,-0.67741 0.58443,-1.56734 h 1.29504 v 1.58062 h 2.07872 v 1.52085 h -2.07872 v 3.57964 q 0,0.43168 0.23909,0.63756 0.24572,0.20588 0.6442,0.20588 z"
         id="path50" /><path
         style="font-weight:bold;font-size:13.6013px;line-height:1.25;font-family:'Open Sans';-inkscape-font-specification:'Open Sans, Bold';fill:#404a5d;fill-opacity:1;stroke-width:0.340032"
         d="m 119.52696,123.90792 h -2.02558 v -4.33674 q 0,-0.80359 -0.27229,-1.20207 -0.26565,-0.40512 -0.84344,-0.40512 -0.77703,0 -1.12902,0.57115 -0.35198,0.57115 -0.35198,1.87948 v 3.4933 h -2.02559 v -7.42493 h 1.54741 l 0.2723,0.9497 h 0.1129 q 0.29885,-0.51137 0.86336,-0.79695 0.56451,-0.29221 1.29505,-0.29221 1.66695,0 2.25803,1.08916 h 0.17931 q 0.29886,-0.51802 0.87665,-0.80359 0.58443,-0.28557 1.31497,-0.28557 1.26183,0 1.90604,0.65084 0.65084,0.6442 0.65084,2.07207 v 4.84148 h -2.03223 v -4.33674 q 0,-0.80359 -0.27229,-1.20207 -0.26565,-0.40512 -0.84344,-0.40512 -0.74382,0 -1.11573,0.5313 -0.36527,0.5313 -0.36527,1.68688 z"
         id="text18" /></g></g></svg>
