<?xml version="1.0" encoding="UTF-8" standalone="no"?>
<!-- Created with Inkscape (http://www.inkscape.org/) -->

<svg
   width="1920"
   height="1080"
   viewBox="0 0 508 285.75"
   version="1.1"
   id="svg5"
   xml:space="preserve"
   inkscape:version="1.3.2 (091e20e, 2023-11-25, custom)"
   sodipodi:docname="maptober_info_template.svg"
   xmlns:inkscape="http://www.inkscape.org/namespaces/inkscape"
   xmlns:sodipodi="http://sodipodi.sourceforge.net/DTD/sodipodi-0.dtd"
   xmlns="http://www.w3.org/2000/svg"
   xmlns:svg="http://www.w3.org/2000/svg"><sodipodi:namedview
     id="namedview7"
     pagecolor="#e5e5e5"
     bordercolor="#666666"
     borderopacity="1.0"
     inkscape:pageshadow="2"
     inkscape:pageopacity="0"
     inkscape:pagecheckerboard="false"
     inkscape:deskcolor="#d1d1d1"
     inkscape:document-units="mm"
     showgrid="false"
     showguides="true"
     showborder="true"
     borderlayer="false"
     inkscape:showpageshadow="true"
     inkscape:zoom="0.18596556"
     inkscape:cx="-333.39506"
     inkscape:cy="903.39307"
     inkscape:window-width="1920"
     inkscape:window-height="1057"
     inkscape:window-x="-8"
     inkscape:window-y="-8"
     inkscape:window-maximized="1"
     inkscape:current-layer="layer-MC0"><inkscape:page
       x="0"
       y="0"
       width="508"
       height="285.75"
       id="page1"
       margin="0"
       bleed="0"
       inkscape:export-filename="..\..\Users\wzbar\Desktop\step_1.png"
       inkscape:export-xdpi="96"
       inkscape:export-ydpi="96" /><sodipodi:guide
       position="21.16667,153.65757"
       orientation="1,0"
       id="guide5"
       inkscape:locked="false" /><sodipodi:guide
       position="21.16667,21.16666"
       orientation="0,-1"
       id="guide6"
       inkscape:locked="false" /><sodipodi:guide
       position="21.16667,264.58333"
       orientation="0,-1"
       id="guide7"
       inkscape:locked="false" /><sodipodi:guide
       position="486.83333,21.16666"
       orientation="1,0"
       id="guide8"
       inkscape:locked="false" /><sodipodi:guide
       position="21.16667,59.002074"
       orientation="0,-1"
       id="guide1"
       inkscape:locked="false" /><sodipodi:guide
       position="387.74355,53.04894"
       orientation="0,-1"
       id="guide199"
       inkscape:locked="false" /><sodipodi:guide
       position="368.05035,27.292632"
       orientation="0,-1"
       id="guide200"
       inkscape:locked="false" /></sodipodi:namedview><defs
     id="defs2"><rect
       x="1781.2438"
       y="-274.24432"
       width="563.27633"
       height="82.386757"
       id="rect3" /><clipPath
       clipPathUnits="userSpaceOnUse"
       id="clipPath5"><path
         d="M 0,107.787 H 283.771 V 0 H 0 Z"
         transform="translate(-110.5996,-81.964402)"
         id="path5-3" /></clipPath><clipPath
       clipPathUnits="userSpaceOnUse"
       id="clipPath7"><path
         d="M 0,107.787 H 283.771 V 0 H 0 Z"
         id="path7-0" /></clipPath><clipPath
       clipPathUnits="userSpaceOnUse"
       id="clipPath9"><path
         d="M 0,107.787 H 283.771 V 0 H 0 Z"
         transform="translate(-121.7773,-75.443802)"
         id="path9-3" /></clipPath><clipPath
       clipPathUnits="userSpaceOnUse"
       id="clipPath11"><path
         d="M 0,107.787 H 283.771 V 0 H 0 Z"
         id="path11-4" /></clipPath><clipPath
       clipPathUnits="userSpaceOnUse"
       id="clipPath13"><path
         d="M 0,107.787 H 283.771 V 0 H 0 Z"
         transform="translate(-144.9834,-75.213902)"
         id="path13-1" /></clipPath><clipPath
       clipPathUnits="userSpaceOnUse"
       id="clipPath15"><path
         d="M 0,107.787 H 283.771 V 0 H 0 Z"
         transform="translate(-151.7344,-65.300801)"
         id="path15-4" /></clipPath><clipPath
       clipPathUnits="userSpaceOnUse"
       id="clipPath17"><path
         d="M 0,107.787 H 283.771 V 0 H 0 Z"
         transform="translate(-164.19921,-72.580602)"
         id="path17-9" /></clipPath><clipPath
       clipPathUnits="userSpaceOnUse"
       id="clipPath19"><path
         d="M 0,107.787 H 283.771 V 0 H 0 Z"
         transform="translate(-170.49021,-74.799802)"
         id="path19-2" /></clipPath><clipPath
       clipPathUnits="userSpaceOnUse"
       id="clipPath21"><path
         d="M 17.007,16.98 H 85.038 V 90.779 H 17.007 Z"
         transform="translate(-53.360501,-84.615102)"
         id="path21-6" /></clipPath><clipPath
       clipPathUnits="userSpaceOnUse"
       id="clipPath23"><path
         d="M 0,0 H 283.771 V 107.787 H 0 Z"
         transform="translate(-50.525902,-80.998102)"
         id="path23-0" /></clipPath><clipPath
       clipPathUnits="userSpaceOnUse"
       id="clipPath25"><path
         d="M 0,0 H 283.771 V 107.787 H 0 Z"
         transform="translate(-48.359301,-83.181702)"
         id="path25-1" /></clipPath><clipPath
       clipPathUnits="userSpaceOnUse"
       id="clipPath27"><path
         d="M 0,107.787 H 283.771 V 0 H 0 Z"
         transform="translate(-101.85501,-53.675801)"
         id="path27" /></clipPath><clipPath
       clipPathUnits="userSpaceOnUse"
       id="clipPath29"><path
         d="M 0,107.787 H 283.771 V 0 H 0 Z"
         transform="translate(-107.47851,-42.578101)"
         id="path29" /></clipPath><clipPath
       clipPathUnits="userSpaceOnUse"
       id="clipPath31"><path
         d="M 0,107.787 H 283.771 V 0 H 0 Z"
         transform="translate(-123.2212,-41.210001)"
         id="path31" /></clipPath><clipPath
       clipPathUnits="userSpaceOnUse"
       id="clipPath33"><path
         d="M 0,107.787 H 283.771 V 0 H 0 Z"
         transform="translate(-133.2949,-49.087901)"
         id="path33" /></clipPath><clipPath
       clipPathUnits="userSpaceOnUse"
       id="clipPath35"><path
         d="M 0,107.787 H 283.771 V 0 H 0 Z"
         transform="translate(-143.3008,-39.588901)"
         id="path35" /></clipPath><clipPath
       clipPathUnits="userSpaceOnUse"
       id="clipPath37"><path
         d="M 0,107.787 H 283.771 V 0 H 0 Z"
         transform="translate(-157.54881,-51.421901)"
         id="path37" /></clipPath><clipPath
       clipPathUnits="userSpaceOnUse"
       id="clipPath39"><path
         d="M 0,107.787 H 283.771 V 0 H 0 Z"
         id="path39" /></clipPath><clipPath
       clipPathUnits="userSpaceOnUse"
       id="clipPath41"><path
         d="M 0,107.787 H 283.771 V 0 H 0 Z"
         transform="translate(-189.7129,-54.377401)"
         id="path41" /></clipPath><clipPath
       clipPathUnits="userSpaceOnUse"
       id="clipPath43"><path
         d="M 0,107.787 H 283.771 V 0 H 0 Z"
         transform="translate(-199.40721,-51.421901)"
         id="path43" /></clipPath><clipPath
       clipPathUnits="userSpaceOnUse"
       id="clipPath45"><path
         d="M 0,107.787 H 283.771 V 0 H 0 Z"
         transform="translate(-204.59371,-49.087901)"
         id="path45" /></clipPath><clipPath
       clipPathUnits="userSpaceOnUse"
       id="clipPath47"><path
         d="M 0,107.787 H 283.771 V 0 H 0 Z"
         transform="translate(-221.07321,-51.421901)"
         id="path47" /></clipPath><clipPath
       clipPathUnits="userSpaceOnUse"
       id="clipPath49"><path
         d="M 0,107.787 H 283.771 V 0 H 0 Z"
         transform="translate(-229.66311,-49.501001)"
         id="path49" /></clipPath><clipPath
       clipPathUnits="userSpaceOnUse"
       id="clipPath51"><path
         d="M 0,107.787 H 283.771 V 0 H 0 Z"
         transform="translate(-236.41411,-39.588901)"
         id="path51" /></clipPath><clipPath
       clipPathUnits="userSpaceOnUse"
       id="clipPath53"><path
         d="M 0,107.787 H 283.771 V 0 H 0 Z"
         transform="translate(-251.13381,-51.421901)"
         id="path53" /></clipPath><clipPath
       clipPathUnits="userSpaceOnUse"
       id="clipPath55"><path
         d="M 0,107.787 H 283.771 V 0 H 0 Z"
         transform="translate(-254.99611,-56.711902)"
         id="path55" /></clipPath><clipPath
       clipPathUnits="userSpaceOnUse"
       id="clipPath57"><path
         d="M 0,107.787 H 283.771 V 0 H 0 Z"
         id="path57" /></clipPath><mask
       id="mask0_2_2"
       maskUnits="userSpaceOnUse"
       x="10"
       y="6"
       width="285"
       height="58"><path
         d="M 294.776,6.5556 H 10.2471 V 63.3505 H 294.776 Z"
         fill="#ffffff"
         id="path7-2" /></mask><mask
       id="mask1_2_2"
       maskUnits="userSpaceOnUse"
       x="10"
       y="6"
       width="285"
       height="58"><path
         d="M 294.776,6.5556 H 10.2471 V 63.3505 H 294.776 Z"
         fill="#ffffff"
         id="path9-9" /></mask><clipPath
       clipPathUnits="userSpaceOnUse"
       id="clipPath149"><g
         id="g150"
         transform="translate(2.4409449e-5)"><rect
           width="300"
           height="72.820602"
           fill="#ffffff"
           id="rect149"
           x="-2458.3699"
           y="1225.0682" /></g></clipPath><clipPath
       clipPathUnits="userSpaceOnUse"
       id="clipPath150"><g
         id="g151"
         transform="translate(2.4409449e-5)"><rect
           width="300"
           height="72.820602"
           fill="#ffffff"
           id="rect150"
           x="-2458.3699"
           y="1225.0682" /></g></clipPath><clipPath
       clipPathUnits="userSpaceOnUse"
       id="clipPath151"><g
         id="g152"
         transform="translate(2.4409449e-5)"><rect
           width="300"
           height="72.820602"
           fill="#ffffff"
           id="rect151"
           x="-2458.3699"
           y="1225.0682" /></g></clipPath><clipPath
       clipPathUnits="userSpaceOnUse"
       id="clipPath152"><g
         id="g153"
         transform="translate(2.4409449e-5)"><rect
           width="300"
           height="72.820602"
           fill="#ffffff"
           id="rect152"
           x="-2458.3699"
           y="1225.0682" /></g></clipPath><clipPath
       clipPathUnits="userSpaceOnUse"
       id="clipPath153"><g
         id="g154"
         transform="translate(2.4409449e-5)"><rect
           width="300"
           height="72.820602"
           fill="#ffffff"
           id="rect153"
           x="-2458.3699"
           y="1225.0682" /></g></clipPath><clipPath
       clipPathUnits="userSpaceOnUse"
       id="clipPath154"><g
         id="g155"
         transform="translate(2458.3699,-1225.0682)"><rect
           width="300"
           height="72.820602"
           fill="#ffffff"
           id="rect154"
           x="-2458.3699"
           y="1225.0682" /></g></clipPath><clipPath
       clipPathUnits="userSpaceOnUse"
       id="clipPath155"><g
         id="g156"
         transform="translate(2458.3699,-1225.0682)"><rect
           width="300"
           height="72.820602"
           fill="#ffffff"
           id="rect155"
           x="-2458.3699"
           y="1225.0682" /></g></clipPath><clipPath
       clipPathUnits="userSpaceOnUse"
       id="clipPath156"><g
         id="g157"
         transform="translate(2.4409449e-5)"><rect
           width="300"
           height="72.820602"
           fill="#ffffff"
           id="rect156"
           x="-2458.3699"
           y="1225.0682" /></g></clipPath><clipPath
       clipPathUnits="userSpaceOnUse"
       id="clipPath157"><g
         id="g158"
         transform="translate(2.4409449e-5)"><rect
           width="300"
           height="72.820602"
           fill="#ffffff"
           id="rect157"
           x="-2458.3699"
           y="1225.0682" /></g></clipPath><clipPath
       clipPathUnits="userSpaceOnUse"
       id="clipPath158"><g
         id="g159"
         transform="translate(2.4409449e-5)"><rect
           width="300"
           height="72.820602"
           fill="#ffffff"
           id="rect158"
           x="-2458.3699"
           y="1225.0682" /></g></clipPath><clipPath
       clipPathUnits="userSpaceOnUse"
       id="clipPath159"><g
         id="g160"
         transform="translate(2.4409449e-5)"><rect
           width="300"
           height="72.820602"
           fill="#ffffff"
           id="rect159"
           x="-2458.3699"
           y="1225.0682" /></g></clipPath><clipPath
       clipPathUnits="userSpaceOnUse"
       id="clipPath160"><g
         id="g161"
         transform="translate(2.4409449e-5)"><rect
           width="300"
           height="72.820602"
           fill="#ffffff"
           id="rect160"
           x="-2458.3699"
           y="1225.0682" /></g></clipPath><clipPath
       clipPathUnits="userSpaceOnUse"
       id="clipPath161"><g
         id="g162"
         transform="translate(2.4409449e-5)"><rect
           width="300"
           height="72.820602"
           fill="#ffffff"
           id="rect161"
           x="-2458.3699"
           y="1225.0682" /></g></clipPath></defs><g
     inkscape:label="Warstwa 1"
     inkscape:groupmode="layer"
     id="layer1"
     transform="translate(-14.32211,147.27141)"><rect
       style="display:inline;opacity:0.634146;fill:#0000ff;stroke-width:13.8939;stroke-linecap:round;paint-order:fill markers stroke;stop-color:#000000"
       id="rect544"
       width="24.053003"
       height="21.818478"
       x="45.412113"
       y="116.48505"
       sodipodi:insensitive="true" /><rect
       style="fill:#ffffff;stroke-width:0.348543;stroke-linecap:round;paint-order:fill markers stroke"
       id="rect1"
       width="508"
       height="285.75"
       x="14.32211"
       y="-147.27141"
       sodipodi:insensitive="true" /><rect
       style="display:none;fill:#ff5555;stroke-width:0.329695;stroke-linecap:round;paint-order:fill markers stroke"
       id="rect92"
       width="465.66666"
       height="205.58124"
       x="35.488781"
       y="-126.10474" /><text
       xml:space="preserve"
       style="font-weight:600;font-size:12.4364px;line-height:1.25;font-family:'Open Sans';-inkscape-font-specification:'Open Sans Semi-Bold';stroke-width:0.31091;fill:#404a5d;fill-opacity:1"
       x="35.215519"
       y="109.41582"
       id="text15"><tspan
         sodipodi:role="line"
         id="tspan15"
         style="font-style:normal;font-variant:normal;font-weight:bold;font-stretch:normal;font-size:12.4364px;font-family:'Open Sans';-inkscape-font-specification:'Open Sans, Bold';font-variant-ligatures:normal;font-variant-caps:normal;font-variant-numeric:normal;font-variant-east-asian:normal;stroke-width:0.31091;fill:#404a5d;fill-opacity:1"
         x="35.215519"
         y="109.41582">#OSMP</tspan></text><text
       xml:space="preserve"
       style="font-weight:600;font-size:12.4364px;line-height:1.25;font-family:'Open Sans';-inkscape-font-specification:'Open Sans Semi-Bold';stroke-width:0.31091;fill:#404a5d;fill-opacity:1"
       x="103.0406"
       y="108.1983"
       id="text195"><tspan
         sodipodi:role="line"
         id="tspan195"
         style="font-style:normal;font-variant:normal;font-weight:bold;font-stretch:normal;font-size:12.4364px;font-family:'Open Sans';-inkscape-font-specification:'Open Sans, Bold';font-variant-ligatures:normal;font-variant-caps:normal;font-variant-numeric:normal;font-variant-east-asian:normal;stroke-width:0.31091;fill:#404a5d;fill-opacity:1"
         x="103.0406"
         y="108.1983">#OsmEditChallenge</tspan></text><text
       xml:space="preserve"
       style="font-weight:600;font-size:12.4364px;line-height:1.25;font-family:'Open Sans';-inkscape-font-specification:'Open Sans Semi-Bold';stroke-width:0.31091;fill:#404a5d;fill-opacity:1"
       x="248.02238"
       y="108.1983"
       id="text197"><tspan
         sodipodi:role="line"
         id="tspan197"
         style="font-style:normal;font-variant:normal;font-weight:bold;font-stretch:normal;font-size:12.4364px;font-family:'Open Sans';-inkscape-font-specification:'Open Sans, Bold';font-variant-ligatures:normal;font-variant-caps:normal;font-variant-numeric:normal;font-variant-east-asian:normal;stroke-width:0.31091;fill:#404a5d;fill-opacity:1"
         x="248.02238"
         y="108.1983">#MapWithPassion</tspan></text><text
       xml:space="preserve"
       style="font-weight:600;font-size:12.4364px;line-height:1.25;font-family:'Open Sans';-inkscape-font-specification:'Open Sans Semi-Bold';stroke-width:0.31091;fill:#404a5d;fill-opacity:1"
       x="35.215519"
       y="94.878426"
       id="text194"><tspan
         sodipodi:role="line"
         id="tspan194"
         style="font-style:normal;font-variant:normal;font-weight:bold;font-stretch:normal;font-size:12.4364px;font-family:'Open Sans';-inkscape-font-specification:'Open Sans, Bold';font-variant-ligatures:normal;font-variant-caps:normal;font-variant-numeric:normal;font-variant-east-asian:normal;stroke-width:0.31091;fill:#404a5d;fill-opacity:1"
         x="35.215519"
         y="94.878426">#Maptober2024</tspan></text><text
       xml:space="preserve"
       style="font-weight:600;font-size:12.4364px;line-height:1.25;font-family:'Open Sans';-inkscape-font-specification:'Open Sans Semi-Bold';stroke-width:0.31091;fill:#404a5d;fill-opacity:1"
       x="161.64297"
       y="94.662857"
       id="text196"><tspan
         sodipodi:role="line"
         id="tspan196"
         style="font-style:normal;font-variant:normal;font-weight:bold;font-stretch:normal;font-size:12.4364px;font-family:'Open Sans';-inkscape-font-specification:'Open Sans, Bold';font-variant-ligatures:normal;font-variant-caps:normal;font-variant-numeric:normal;font-variant-east-asian:normal;stroke-width:0.31091;fill:#404a5d;fill-opacity:1"
         x="161.64297"
         y="94.662857">#OpenStreetMap</tspan></text><text
       xml:space="preserve"
       style="font-weight:600;font-size:12.4364px;line-height:1.25;font-family:'Open Sans';-inkscape-font-specification:'Open Sans Semi-Bold';stroke-width:0.31091;fill:#404a5d;fill-opacity:1"
       x="296.62653"
       y="94.878426"
       id="text198"><tspan
         sodipodi:role="line"
         id="tspan198"
         style="font-style:normal;font-variant:normal;font-weight:bold;font-stretch:normal;font-size:12.4364px;font-family:'Open Sans';-inkscape-font-specification:'Open Sans, Bold';font-variant-ligatures:normal;font-variant-caps:normal;font-variant-numeric:normal;font-variant-east-asian:normal;stroke-width:0.31091;fill:#404a5d;fill-opacity:1"
         x="296.62653"
         y="94.878426">#mapping</tspan></text></g><g
     id="layer-MC0"
     inkscape:groupmode="layer"
     inkscape:label="Warstwa 1"
     transform="matrix(0.26458333,0,0,0.26458334,518,0)"
     style="display:inline"><text
       xml:space="preserve"
       transform="translate(-1957.7953)"
       id="text1"
       style="font-weight:600;font-size:40px;line-height:1.25;font-family:'Open Sans';-inkscape-font-specification:'Open Sans Semi-Bold';white-space:pre;shape-inside:url(#rect3);display:inline" /><g
       id="g192"
       transform="matrix(7.0583048,0,0,7.0583048,22799.229,-2713.2415)"><path
         id="path20-9"
         style="font-size:24.0656px;line-height:1.25;font-family:'Viner Hand ITC';-inkscape-font-specification:'Viner Hand ITC, Normal';fill:#04bc42;fill-opacity:1;stroke:none;stroke-width:0.388569"
         d="m -3347.8236,433.07776 c -4.3341,0 -7.6969,1.27283 -10.0898,3.81637 -2.393,2.54355 -3.5899,6.10832 -3.5899,10.69338 0,2.94516 0.5518,5.52163 1.6563,7.73046 0.7483,1.49662 1.72,2.75316 2.9062,3.78127 l -0.1228,0.16403 -1.0918,1.54295 -0.4903,-0.15231 c -0.4304,-0.13493 -0.5609,-0.14098 -1.0547,-0.0567 -1.063,0.17802 -0.8033,-0.13039 -5.6874,6.77537 -4.8338,6.83622 -4.5769,6.40468 -4.3965,7.45898 0.1545,0.94934 0.3001,1.10827 2.4375,2.61524 1.7943,1.26452 2.1324,1.4513 2.7343,1.49805 v 0 c 0.4349,0.034 1.1094,-0.16025 1.5176,-0.43944 0.3194,-0.2177 0.9027,-1.00165 4.6504,-6.27931 4.8603,-6.85761 4.6615,-6.51488 4.4746,-7.57814 -0.084,-0.49206 -0.1323,-0.60941 -0.4024,-0.96873 l -0.3065,-0.41991 1.457,-1.97658 c 1.5901,0.58855 3.3368,0.88868 5.2461,0.88868 4.3006,0 7.6568,-1.29018 10.0664,-3.86721 2.4097,-2.57699 3.6133,-6.14842 3.6133,-10.71677 0,-2.94516 -0.5518,-5.5149 -1.6562,-7.70703 -1.1044,-2.19216 -2.6859,-3.87356 -4.7442,-5.04495 -2.0583,-1.17135 -4.4348,-1.75778 -7.1289,-1.75778 z m -0.1,6.17574 c 2.0583,0 3.5398,0.6951 4.4434,2.084 0.9036,1.3889 1.3555,3.47217 1.3555,6.25001 0,2.79455 -0.4519,4.90182 -1.3555,6.32421 -0.8869,1.40564 -2.3511,2.10939 -4.3926,2.10939 -2.0583,0 -3.5483,-0.7124 -4.4687,-2.13479 -0.9036,-1.42239 -1.3555,-3.52101 -1.3555,-6.29881 0,-2.79454 0.4519,-4.87782 1.3555,-6.25001 0.9036,-1.3889 2.3764,-2.084 4.4179,-2.084 z" /><path
         id="path46-7"
         style="font-weight:bold;font-size:13.6013px;line-height:1.25;font-family:'Open Sans';-inkscape-font-specification:'Open Sans, Bold';fill:#404a5d;fill-opacity:1;stroke-width:1.28516"
         d="m -3434.1947,433.02892 c -3.9324,0 -7.5125,0.84503 -10.7422,2.53516 l 2.5352,5.1699 c 3.0288,-1.35541 5.6639,-2.03319 7.9063,-2.03319 2.9116,0 4.3671,1.42284 4.3671,4.26757 v 1.23047 l -4.8691,0.15042 c -4.2002,0.1508 -7.3458,0.93698 -9.4375,2.35937 -2.075,1.40568 -3.1133,3.59758 -3.1133,6.57619 0,2.84474 0.7691,5.03664 2.3086,6.57619 1.5562,1.53951 3.6828,2.31054 6.377,2.31054 2.1921,0 3.9648,-0.31068 5.3203,-0.92969 1.3722,-0.63591 2.7037,-1.76549 3.9921,-3.38869 h 0.1992 l 1.4825,3.81445 h 5.3457 V 442.9684 c 0,-3.34677 -1.0037,-5.84054 -3.0118,-7.48048 -2.008,-1.63993 -4.895,-2.45896 -8.6601,-2.45896 z m 4.0664,15.6367 v 2.31054 c 0,1.69013 -0.5364,3.04566 -1.6074,4.06643 -1.0542,1.02078 -2.4664,1.53124 -4.2402,1.53124 -2.4766,0 -3.7168,-1.07958 -3.7168,-3.23826 0,-1.50607 0.5451,-2.627 1.6328,-3.36329 1.0877,-0.73621 2.7431,-1.13805 4.9687,-1.2051 z" /><path
         id="path48-7"
         style="font-weight:bold;font-size:13.6013px;line-height:1.25;font-family:'Open Sans';-inkscape-font-specification:'Open Sans, Bold';fill:#404a5d;fill-opacity:1;stroke-width:1.28516"
         d="m -3399.0287,433.07776 c -3.5141,0 -6.1665,1.39014 -7.957,4.16794 h -0.3515 l -1.0781,-3.64063 h -6.2266 v 40.41211 h 7.6563 v -11.36912 c 0,-0.36813 -0.1327,-1.72369 -0.4004,-4.06643 h 0.4004 c 1.8742,2.39297 4.4593,3.58987 7.7558,3.58987 2.1922,0 4.0995,-0.57778 5.7227,-1.73242 1.6232,-1.15465 2.8701,-2.83608 3.7402,-5.04492 0.8869,-2.2089 1.3321,-4.8113 1.3321,-7.80665 0,-4.55161 -0.9383,-8.10769 -2.8125,-10.66798 -1.8742,-2.56025 -4.468,-3.84177 -7.7813,-3.84177 z m -2.459,6.12498 c 1.8073,0 3.1282,0.69506 3.9649,2.084 0.8534,1.37216 1.2812,3.43812 1.2812,6.19922 0,5.65602 -1.716,8.48436 -5.1464,8.48436 -1.9412,0 -3.364,-0.65182 -4.2676,-1.95704 -0.8869,-1.30523 -1.3301,-3.46447 -1.3301,-6.47656 v -0.82814 c 0.034,-2.67738 0.4853,-4.59337 1.3555,-5.74802 0.8701,-1.17138 2.2516,-1.75782 4.1425,-1.75782 z" /><path
         id="path53-4"
         style="font-weight:bold;font-size:13.6013px;line-height:1.25;font-family:'Open Sans';-inkscape-font-specification:'Open Sans, Bold';fill:#404a5d;fill-opacity:1;stroke-width:1.28516"
         d="m -3327.9681,422.61096 v 39.05662 h 5.8477 l 1.2812,-3.08595 h 0.5273 c 1.8742,2.39297 4.4593,3.58987 7.7559,3.58987 3.33,0 5.9565,-1.27283 7.8809,-3.81642 1.9411,-2.54354 2.9121,-6.13228 2.9121,-10.76757 0,-4.50138 -0.9364,-8.04211 -2.8106,-10.61915 -1.8742,-2.59374 -4.4679,-3.8906 -7.7812,-3.8906 -3.5142,0 -6.1666,1.39014 -7.9571,4.16794 h -0.3008 c 0.2007,-2.54354 0.3008,-4.39226 0.3008,-5.54687 v -9.08787 z m 13.1523,16.59178 c 1.6232,0 2.9047,0.69506 3.8418,2.084 0.9371,1.37216 1.4043,3.43812 1.4043,6.19922 0,2.76109 -0.4672,4.8703 -1.4043,6.32617 -0.9203,1.43909 -2.1672,2.15819 -3.7402,2.15819 -1.9412,0 -3.364,-0.65182 -4.2676,-1.95704 -0.8869,-1.30523 -1.3301,-3.46447 -1.3301,-6.47656 v -0.82814 c 0.034,-2.67738 0.4853,-4.59337 1.3555,-5.74802 0.8701,-1.17138 2.2497,-1.75782 4.1406,-1.75782 z" /><path
         style="font-weight:bold;font-size:13.6013px;line-height:1.25;font-family:'Open Sans';-inkscape-font-specification:'Open Sans, Bold';fill:#404a5d;fill-opacity:1;stroke-width:1.28516"
         d="m -3249.4025,433.07866 q 1.5563,0 2.5854,0.22602 l -0.5773,7.17883 q -0.9287,-0.25096 -2.2591,-0.25096 -3.6647,0 -5.7229,1.88258 -2.0332,1.88255 -2.0332,5.27116 v 14.28238 h -7.6558 v -28.06273 h 5.7983 l 1.1296,4.71897 h 0.3764 q 1.3052,-2.35948 3.5141,-3.79022 2.234,-1.45584 4.8445,-1.45584 z"
         id="path57-6" /><path
         id="path56-4"
         style="font-weight:bold;font-size:13.6013px;line-height:1.25;font-family:'Open Sans';-inkscape-font-specification:'Open Sans, Bold';fill:#404a5d;fill-opacity:1;stroke-width:1.28516"
         d="m -3283.8666,433.07776 c -4.15,0 -7.4041,1.29017 -9.7636,3.86717 -2.3428,2.56029 -3.5137,6.19034 -3.5137,10.89256 0,4.56835 1.2709,8.1004 3.8145,10.59375 2.5435,2.49336 6.0755,3.74026 10.5937,3.74026 2.1921,0 4.0495,-0.16932 5.5723,-0.50392 1.5228,-0.31786 2.9523,-0.81113 4.291,-1.48048 v -5.92381 c -1.6399,0.76978 -3.2127,1.33024 -4.7188,1.68163 -1.506,0.35149 -3.1028,0.52735 -4.7929,0.52735 -2.1754,0 -3.8655,-0.61046 -5.0703,-1.83205 -1.2049,-1.22154 -1.85,-2.92025 -1.9336,-5.09567 h 18.0976 v -3.71486 c 0,-3.98267 -1.1036,-7.10422 -3.3125,-9.36329 -2.2088,-2.25906 -5.2977,-3.38864 -9.2637,-3.38864 z m 0.051,5.44724 c 1.6232,0 2.9114,0.51916 3.8652,1.55664 0.9538,1.02077 1.447,2.47627 1.4805,4.3672 h -10.7422 c 0.1338,-1.89093 0.6617,-3.34643 1.582,-4.3672 0.9204,-1.03748 2.1913,-1.55664 3.8145,-1.55664 z" /><path
         style="font-weight:bold;font-size:13.6013px;line-height:1.25;font-family:'Open Sans';-inkscape-font-specification:'Open Sans, Bold';fill:#404a5d;fill-opacity:1;stroke-width:1.28516"
         d="m -3370.288,456.071 q 2.008,0 4.8193,-0.87851 v 5.69786 q -2.8615,1.28017 -7.0282,1.28017 -4.5935,0 -6.7019,-2.30929 -2.0834,-2.33439 -2.0834,-6.97803 v -13.52935 h -3.6647 v -3.238 l 4.2169,-2.56029 2.2089,-5.9238 h 4.8946 v 5.974 h 7.8566 v 5.74809 h -7.8566 v 13.52935 q 0,1.63154 0.9037,2.40967 0.9287,0.77813 2.4348,0.77813 z"
         id="path50-9" /><path
         style="font-weight:bold;font-size:13.6013px;line-height:1.25;font-family:'Open Sans';-inkscape-font-specification:'Open Sans, Bold';fill:#404a5d;fill-opacity:1;stroke-width:1.28516"
         d="m -3471.0428,461.66848 h -7.6557 v -16.39083 q 0,-3.03719 -1.0291,-4.54325 -1.0041,-1.53116 -3.1878,-1.53116 -2.9368,0 -4.2672,2.15867 -1.3303,2.15868 -1.3303,7.10355 v 13.20302 h -7.6558 v -28.06272 h 5.8485 l 1.0292,3.58941 h 0.4267 q 1.1295,-1.93273 3.2631,-3.01209 2.1335,-1.10442 4.8946,-1.10442 6.3003,0 8.5343,4.11651 h 0.6777 q 1.1296,-1.95787 3.3134,-3.03719 2.2088,-1.07932 4.9699,-1.07932 4.7691,0 7.204,2.45987 2.4598,2.43477 2.4598,7.83145 v 18.2985 h -7.6808 v -16.39083 q 0,-3.03719 -1.0292,-4.54325 -1.004,-1.53116 -3.1878,-1.53116 -2.8113,0 -4.2169,2.00806 -1.3806,2.00806 -1.3806,6.37561 z"
         id="text18" /></g><g
       id="g165" /><g
       id="g148"
       transform="matrix(2.4692914,0,0,2.4692913,-693.10135,1618.8832)"><path
         d="m 86.082831,-298.10684 v 4.76229 h 19.049209 v 23.81168 l -19.049209,9.52447 -19.049206,-9.52447 v -23.81168 z"
         fill="#ceeeab"
         id="path124"
         style="stroke-width:0.264583" /><path
         fill-rule="evenodd"
         clip-rule="evenodd"
         d="m 86.082831,-298.10684 v 4.76229 h 19.049209 v 23.81168 l -19.049209,9.52447 -19.049206,-9.52447 v -23.81168 z m -2.976298,3.81214 -13.096345,3.27422 v 19.64796 l 16.072643,8.03645 16.072909,-8.03645 v -18.9955 H 83.106533 Z"
         fill="#59b300"
         id="path125"
         style="stroke-width:0.264583" /><path
         d="m 92.269848,-280.09372 -2.525448,-2.52571 -5.617369,5.61737 -1.262591,-1.26286 -13.469938,13.46994 5.051161,5.05116 13.469937,-13.46994 -1.262856,-1.26285 z"
         fill="#000000"
         id="path126"
         style="stroke-width:0.264583" /><path
         d="m 105.59479,-279.10682 c -4.64952,4.64952 -12.187763,4.64952 -16.837286,0 -4.649523,-4.64953 -4.649523,-12.18777 0,-16.83737 4.649523,-4.6495 12.187766,-4.6495 16.837286,0 4.64953,4.6496 4.64953,12.18784 0,16.83737 z"
         fill="#d4213d"
         id="path127"
         style="stroke-width:0.264583" /><path
         d="m 109.082,-287.5256 c 0,-3.15754 -1.25439,-6.18583 -3.48721,-8.41859 -2.23282,-2.23277 -5.26097,-3.48713 -8.418509,-3.48713 -3.157802,0 -6.185958,1.25436 -8.418777,3.48713 -2.232818,2.23276 -3.487208,5.26105 -3.487208,8.41859 z"
         fill="#ffffff"
         id="path128"
         style="stroke-width:0.264583" /><path
         fill-rule="evenodd"
         clip-rule="evenodd"
         d="m 90.862265,-281.21158 c 3.486943,3.48721 9.140825,3.48721 12.628035,0 3.48694,-3.48721 3.48694,-9.14083 0,-12.62796 -3.48721,-3.48713 -9.141092,-3.48713 -12.628035,0 -3.487209,3.48713 -3.487209,9.14075 0,12.62796 z m -2.104761,2.10476 c 4.649523,4.64952 12.187766,4.64952 16.837286,0 4.64953,-4.64953 4.64953,-12.18777 0,-16.83737 -4.64952,-4.6495 -12.187763,-4.6495 -16.837286,0 -4.649523,4.6496 -4.649523,12.18784 0,16.83737 z"
         fill="#000000"
         id="path129"
         style="stroke-width:0.264583" /><path
         d="m 157.46794,-276.84649 c 1.22079,0 2.15662,0.26591 2.80776,0.79772 0.65114,0.53181 0.97658,1.34012 0.97658,2.42544 v 6.06319 h -1.73355 l -0.48022,-1.23719 h -0.0651 c -0.26035,0.3257 -0.52625,0.59161 -0.79745,0.79772 -0.27146,0.20611 -0.58341,0.35798 -0.9361,0.45587 -0.35269,0.0976 -0.78131,0.14632 -1.28587,0.14632 -0.53711,0 -1.01997,-0.10293 -1.4486,-0.3093 -0.42333,-0.20611 -0.75697,-0.5207 -1.00118,-0.94403 -0.24421,-0.42863 -0.36618,-0.97129 -0.36618,-1.62772 0,-0.96573 0.33919,-1.67667 1.01732,-2.13228 0.67839,-0.46117 1.69571,-0.71622 3.05197,-0.76517 l 1.57903,-0.0487 v -0.39872 c 0,-0.47758 -0.12488,-0.82762 -0.37438,-1.05013 -0.24951,-0.22225 -0.5969,-0.33364 -1.04167,-0.33364 -0.43974,0 -0.87101,0.0624 -1.29408,0.18732 -0.42333,0.12462 -0.8464,0.28205 -1.26973,0.47202 l -0.82206,-1.67667 c 0.48286,-0.25506 1.02288,-0.45561 1.61978,-0.60219 0.60219,-0.14658 1.22343,-0.21987 1.86372,-0.21987 z m 1.31842,5.07048 -0.96044,0.0325 c -0.80301,0.0217 -1.36181,0.16563 -1.67666,0.43127 -0.30903,0.26591 -0.46381,0.61595 -0.46381,1.05013 0,0.37968 0.11138,0.65088 0.33363,0.81386 0.22252,0.15716 0.51277,0.23601 0.87101,0.23601 0.53155,0 0.97923,-0.15743 1.34276,-0.47202 0.3691,-0.31485 0.55351,-0.76253 0.55351,-1.34302 z"
         fill="#000000"
         id="path130"
         style="stroke-width:0.264583" /><path
         d="m 146.71977,-280.22389 v 5.66446 c 0,0.34184 -0.0135,0.68368 -0.0407,1.02553 -0.027,0.34184 -0.0569,0.68368 -0.0894,1.02552 h 0.0325 c 0.16801,-0.23892 0.33893,-0.47493 0.51277,-0.70802 0.17885,-0.23337 0.36882,-0.45853 0.56964,-0.67575 l 2.54741,-2.76701 h 2.79982 l -3.61368,3.94732 3.83329,5.1517 h -2.86491 l -2.62043,-3.68671 -1.06628,0.85434 v 2.83237 h -2.48232 v -12.66375 z"
         fill="#000000"
         id="path131"
         style="stroke-width:0.264583" /><path
         d="m 143.13388,-270.26207 c 0,0.61833 -0.14658,1.14195 -0.43948,1.57057 -0.2876,0.42333 -0.71887,0.74613 -1.29407,0.96864 -0.57521,0.21696 -1.29143,0.32544 -2.14868,0.32544 -0.63474,0 -1.18005,-0.0408 -1.63592,-0.12198 -0.45032,-0.0815 -0.90594,-0.21695 -1.36711,-0.40692 v -2.05105 c 0.49372,0.22251 1.02262,0.40692 1.58698,0.5535 0.56964,0.14103 1.06891,0.21167 1.49754,0.21167 0.48286,0 0.82735,-0.0706 1.03346,-0.21167 0.21167,-0.14658 0.3175,-0.33655 0.3175,-0.56964 0,-0.15214 -0.0434,-0.28761 -0.13018,-0.40693 -0.0815,-0.12489 -0.26035,-0.26326 -0.5371,-0.41513 -0.27675,-0.15743 -0.71094,-0.3609 -1.30228,-0.6104 -0.56965,-0.23865 -1.03902,-0.48022 -1.40811,-0.72443 -0.36327,-0.24421 -0.63474,-0.53181 -0.81386,-0.86254 -0.17357,-0.33655 -0.26035,-0.76253 -0.26035,-1.27794 0,-0.84084 0.3257,-1.47293 0.97658,-1.89627 0.65669,-0.42862 1.53299,-0.64293 2.6289,-0.64293 0.56435,0 1.10146,0.0569 1.61157,0.17092 0.51541,0.11377 1.04431,0.29554 1.58698,0.5453 l -0.74878,1.79044 c -0.45032,-0.19526 -0.8763,-0.35534 -1.27793,-0.48022 -0.39608,-0.12462 -0.8001,-0.18706 -1.21259,-0.18706 -0.36354,0 -0.63738,0.0487 -0.82206,0.14631 -0.18441,0.0979 -0.27649,0.24713 -0.27649,0.44768 0,0.14658 0.046,0.27675 0.13811,0.39079 0.0979,0.11377 0.28231,0.2413 0.55351,0.38259 0.27676,0.13546 0.68104,0.31194 1.21259,0.5289 0.51567,0.21167 0.96308,0.43418 1.34302,0.66728 0.37968,0.22807 0.67284,0.51276 0.87895,0.8546 0.20611,0.33655 0.3093,0.77311 0.3093,1.31048 z"
         fill="#000000"
         id="path132"
         style="stroke-width:0.264583" /><path
         d="m 135.00641,-267.56014 h -2.48233 v -12.66375 h 2.48233 z"
         fill="#000000"
         id="path133"
         style="stroke-width:0.264583" /><path
         d="m 131.30674,-272.12606 c 0,0.75962 -0.10319,1.43246 -0.3093,2.01851 -0.20082,0.58605 -0.49662,1.08241 -0.88715,1.48934 -0.38523,0.40164 -0.85196,0.70538 -1.39991,0.91149 -0.54266,0.20637 -1.1557,0.3093 -1.83938,0.3093 -0.64029,0 -1.22899,-0.10293 -1.7661,-0.3093 -0.53181,-0.20611 -0.99562,-0.50985 -1.3917,-0.91149 -0.39079,-0.40693 -0.69454,-0.90329 -0.91149,-1.48934 -0.21167,-0.58605 -0.3175,-1.25889 -0.3175,-2.01851 0,-1.00912 0.17912,-1.86372 0.5371,-2.56354 0.35825,-0.70009 0.8681,-1.23164 1.53009,-1.59518 0.66198,-0.36353 1.4515,-0.5453 2.36855,-0.5453 0.85169,0 1.60602,0.18177 2.26245,0.5453 0.66198,0.36354 1.18004,0.89509 1.55442,1.59518 0.37995,0.69982 0.56992,1.55442 0.56992,2.56354 z m -6.29127,0 c 0,0.5969 0.0651,1.09882 0.19527,1.50575 0.13017,0.40693 0.33364,0.71358 0.61039,0.91969 0.27676,0.20611 0.63765,0.3093 1.08241,0.3093 0.43947,0 0.79481,-0.10319 1.06627,-0.3093 0.27676,-0.20611 0.47731,-0.51276 0.60219,-0.91969 0.13018,-0.40693 0.19527,-0.90885 0.19527,-1.50575 0,-0.60219 -0.0651,-1.10119 -0.19527,-1.49727 -0.12488,-0.40164 -0.32543,-0.70274 -0.60219,-0.90356 -0.27675,-0.20081 -0.63764,-0.30109 -1.08241,-0.30109 -0.65669,0 -1.134,0.22516 -1.43245,0.67548 -0.29316,0.45032 -0.43948,1.1258 -0.43948,2.02644 z"
         fill="#000000"
         id="path134"
         style="stroke-width:0.264583" /><path
         d="m 117.66561,-279.45898 c 1.53538,0 2.65589,0.33099 3.36127,0.99298 0.70538,0.65643 1.05807,1.56263 1.05807,2.71833 0,0.52096 -0.0789,1.01997 -0.23601,1.49754 -0.15743,0.47202 -0.41513,0.89244 -0.77338,1.26153 -0.35269,0.36883 -0.8247,0.66199 -1.41605,0.87895 -0.59134,0.21166 -1.32106,0.3175 -2.18942,0.3175 h -1.08241 v 4.23201 h -2.52281 v -11.89884 z m -0.13044,2.06719 h -1.14749 v 3.53245 h 0.83026 c 0.47202,0 0.88159,-0.0624 1.22899,-0.18733 0.34713,-0.12488 0.61568,-0.32014 0.80566,-0.58605 0.18997,-0.2659 0.28495,-0.60748 0.28495,-1.02552 0,-0.58579 -0.16298,-1.01997 -0.48842,-1.30202 -0.32544,-0.2876 -0.83026,-0.43153 -1.51395,-0.43153 z"
         fill="#000000"
         id="path135"
         style="stroke-width:0.264583" /><path
         d="m 229.5497,-291.11705 c 1.02553,0 1.85288,0.39899 2.48232,1.19644 0.63474,0.79772 0.95224,1.96691 0.95224,3.50785 0,1.03081 -0.14923,1.89891 -0.44768,2.60429 -0.29845,0.70009 -0.71067,1.22899 -1.23692,1.58724 -0.52652,0.35798 -1.13136,0.5371 -1.81505,0.5371 -0.43947,0 -0.8165,-0.0542 -1.13135,-0.16272 -0.31459,-0.11403 -0.58315,-0.25797 -0.80566,-0.43153 -0.22251,-0.17913 -0.41513,-0.36883 -0.57785,-0.56965 h -0.13017 c 0.0434,0.21696 0.0759,0.43947 0.0976,0.66728 0.0217,0.22807 0.0325,0.45032 0.0325,0.66754 v 3.67057 h -2.48232 v -13.10349 h 2.01851 l 0.34978,1.1803 h 0.11403 c 0.16272,-0.24421 0.36089,-0.46937 0.59425,-0.67574 0.2331,-0.20611 0.5125,-0.36883 0.8382,-0.48816 0.331,-0.12488 0.71359,-0.18732 1.1475,-0.18732 z m -0.79745,1.98596 c -0.43418,0 -0.77867,0.0894 -1.03373,0.26855 -0.25506,0.17912 -0.44212,0.44768 -0.56144,0.80566 -0.11404,0.35824 -0.17648,0.81121 -0.18733,1.35916 v 0.26855 c 0,0.58606 0.0542,1.08268 0.16272,1.48961 0.11403,0.40693 0.30109,0.71596 0.56171,0.92763 0.26591,0.21166 0.62944,0.3175 1.09061,0.3175 0.37968,0 0.69162,-0.10584 0.93583,-0.3175 0.24421,-0.21167 0.42598,-0.5207 0.54531,-0.92763 0.12488,-0.41249 0.18732,-0.9144 0.18732,-1.50575 0,-0.88979 -0.13837,-1.55998 -0.41513,-2.0103 -0.27675,-0.45032 -0.70538,-0.67548 -1.28587,-0.67548 z"
         fill="#000000"
         id="path136"
         style="stroke-width:0.264583" /><path
         d="m 219.31694,-291.13346 c 1.22079,0 2.15689,0.26591 2.80803,0.79772 0.65113,0.53181 0.97657,1.34012 0.97657,2.42517 v 6.06346 h -1.73355 l -0.48022,-1.23719 h -0.0651 c -0.26035,0.3257 -0.52626,0.5916 -0.79746,0.79771 -0.27146,0.20612 -0.5834,0.35799 -0.93609,0.45588 -0.35269,0.0976 -0.78132,0.14632 -1.28588,0.14632 -0.5371,0 -1.01997,-0.10293 -1.44859,-0.3093 -0.42334,-0.20611 -0.75698,-0.5207 -1.00119,-0.94403 -0.24421,-0.42863 -0.36618,-0.97129 -0.36618,-1.62772 0,-0.96573 0.3392,-1.67667 1.01732,-2.13228 0.67813,-0.46117 1.69545,-0.71623 3.05197,-0.76517 l 1.57904,-0.0487 v -0.39899 c 0,-0.47731 -0.12489,-0.82735 -0.37439,-1.04986 -0.24977,-0.22225 -0.5969,-0.33364 -1.04193,-0.33364 -0.43947,0 -0.87074,0.0624 -1.29408,0.18732 -0.42306,0.12462 -0.8464,0.28205 -1.26947,0.47202 l -0.82206,-1.67667 c 0.48287,-0.25506 1.02262,-0.45561 1.61952,-0.60219 0.60245,-0.14658 1.2237,-0.21987 1.86372,-0.21987 z m 1.31869,5.07048 -0.96044,0.0325 c -0.80301,0.0217 -1.36181,0.16563 -1.67667,0.43127 -0.30929,0.26591 -0.46381,0.61595 -0.46381,1.05013 0,0.37968 0.11112,0.65088 0.33364,0.81386 0.22251,0.15716 0.51276,0.23601 0.87074,0.23601 0.53181,0 0.97949,-0.15743 1.34303,-0.47202 0.36883,-0.31485 0.55351,-0.76253 0.55351,-1.34302 z"
         fill="#000000"
         id="path137"
         style="stroke-width:0.264583" /><path
         d="m 206.2497,-281.84711 -2.86491,-9.33503 h -0.073 c 0.0109,0.22251 0.027,0.5588 0.0487,1.00912 0.0273,0.44503 0.0516,0.91969 0.0733,1.42425 0.0217,0.50456 0.0325,0.96044 0.0325,1.36737 v 5.53429 h -2.25451 v -11.89876 h 3.43456 l 2.81596,9.0992 h 0.0489 l 2.98689,-9.0992 h 3.43455 v 11.89876 h -2.35214 v -5.63192 c 0,-0.37439 0.006,-0.80566 0.0164,-1.29408 0.0161,-0.48842 0.0352,-0.95224 0.0569,-1.39171 0.0217,-0.44503 0.0381,-0.77867 0.0489,-1.00118 h -0.0733 l -3.06837,9.31889 z"
         fill="#000000"
         id="path138"
         style="stroke-width:0.264583" /><path
         d="m 198.36035,-283.66189 c 0.2712,0 0.53446,-0.0272 0.78952,-0.0815 0.26035,-0.0542 0.51806,-0.12197 0.77311,-0.20347 v 1.84759 c -0.2659,0.11933 -0.5969,0.21696 -0.99298,0.29289 -0.39052,0.0815 -0.81941,0.12198 -1.28587,0.12198 -0.54266,0 -1.03082,-0.0868 -1.465,-0.26035 -0.42863,-0.17913 -0.76782,-0.48551 -1.01732,-0.9197 -0.24421,-0.43947 -0.36619,-1.04986 -0.36619,-1.83118 v -4.38679 h -1.18824 v -1.04986 l 1.3671,-0.83 0.71623,-1.92088 h 1.58723 v 1.93702 h 2.54741 v 1.86372 h -2.54741 v 4.38679 c 0,0.3474 0.0976,0.60775 0.2929,0.78132 0.20082,0.16827 0.46381,0.25241 0.78951,0.25241 z"
         fill="#000000"
         id="path139"
         style="stroke-width:0.264583" /><path
         d="m 189.26451,-291.11705 c 0.84111,0 1.56527,0.16298 2.17302,0.48842 0.60775,0.32014 1.07712,0.7866 1.40811,1.39991 0.33073,0.61304 0.49636,1.36181 0.49636,2.24631 v 1.20438 h -5.86793 c 0.027,0.70009 0.23601,1.25069 0.62654,1.65233 0.39608,0.39608 0.94403,0.59399 1.64412,0.59399 0.58049,0 1.11231,-0.0595 1.59517,-0.17913 0.48287,-0.11932 0.97922,-0.29845 1.48934,-0.5371 v 1.92087 c -0.45032,0.22225 -0.92234,0.38524 -1.41605,0.48816 -0.48842,0.10319 -1.08241,0.15478 -1.7825,0.15478 -0.91149,0 -1.72005,-0.16827 -2.42517,-0.50456 -0.70009,-0.33655 -1.25068,-0.84931 -1.65232,-1.53829 -0.39608,-0.68924 -0.59399,-1.55733 -0.59399,-2.60455 0,-1.06337 0.17886,-1.94787 0.5371,-2.65298 0.36354,-0.71094 0.8681,-1.24275 1.51368,-1.59517 0.64585,-0.35825 1.39727,-0.53737 2.25452,-0.53737 z m 0.0161,1.76609 c -0.48287,0 -0.88424,0.15478 -1.20438,0.46408 -0.31459,0.3093 -0.49636,0.79481 -0.54531,1.4568 h 3.48324 c -0.005,-0.3691 -0.073,-0.69718 -0.20347,-0.98478 -0.12461,-0.28761 -0.31459,-0.51541 -0.56964,-0.68369 -0.24951,-0.16827 -0.56965,-0.25241 -0.96044,-0.25241 z"
         fill="#000000"
         id="path140"
         style="stroke-width:0.264583" /><path
         d="m 180.06442,-291.11705 c 0.84111,0 1.56554,0.16298 2.17329,0.48842 0.60748,0.32014 1.07685,0.7866 1.40784,1.39991 0.331,0.61304 0.49636,1.36181 0.49636,2.24631 v 1.20438 h -5.86793 c 0.0273,0.70009 0.23601,1.25069 0.6268,1.65233 0.39608,0.39608 0.94403,0.59399 1.64386,0.59399 0.58076,0 1.1123,-0.0595 1.59517,-0.17913 0.48313,-0.11932 0.97949,-0.29845 1.4896,-0.5371 v 1.92087 c -0.45058,0.22225 -0.9226,0.38524 -1.41631,0.48816 -0.48816,0.10319 -1.08241,0.15478 -1.78223,0.15478 -0.91149,0 -1.72006,-0.16827 -2.42544,-0.50456 -0.69982,-0.33655 -1.25069,-0.84931 -1.65206,-1.53829 -0.39608,-0.68924 -0.59425,-1.55733 -0.59425,-2.60455 0,-1.06337 0.17912,-1.94787 0.5371,-2.65298 0.36354,-0.71094 0.8681,-1.24275 1.51395,-1.59517 0.64558,-0.35825 1.397,-0.53737 2.25425,-0.53737 z m 0.0164,1.76609 c -0.48286,0 -0.8845,0.15478 -1.20465,0.46408 -0.31459,0.3093 -0.49635,0.79481 -0.5453,1.4568 h 3.4835 c -0.006,-0.3691 -0.0733,-0.69718 -0.20346,-0.98478 -0.12489,-0.28761 -0.31459,-0.51541 -0.56965,-0.68369 -0.24977,-0.16827 -0.56991,-0.25241 -0.96044,-0.25241 z"
         fill="#000000"
         id="path141"
         style="stroke-width:0.264583" /><path
         d="m 174.65581,-291.11705 c 0.12488,0 0.26855,0.008 0.43127,0.0246 0.16827,0.0109 0.304,0.027 0.40693,0.0487 l -0.18707,2.3278 c -0.0815,-0.0272 -0.19817,-0.0463 -0.35004,-0.0571 -0.14658,-0.0161 -0.27411,-0.0243 -0.38259,-0.0243 -0.32014,0 -0.63209,0.0407 -0.93583,0.12197 -0.29845,0.0815 -0.567,0.21431 -0.80565,0.39899 -0.23892,0.17886 -0.42863,0.41778 -0.56992,0.71623 -0.13546,0.29289 -0.20346,0.65379 -0.20346,1.08241 v 4.631 h -2.48232 v -9.09928 h 1.88013 l 0.36618,1.53008 h 0.12224 c 0.17886,-0.3093 0.40137,-0.59134 0.66728,-0.8464 0.2712,-0.26035 0.57785,-0.46646 0.91969,-0.6186 0.34713,-0.15716 0.72152,-0.236 1.12316,-0.236 z"
         fill="#000000"
         id="path142"
         style="stroke-width:0.264583" /><path
         d="m 167.00035,-283.66189 c 0.27146,0 0.53446,-0.0272 0.78952,-0.0815 0.26061,-0.0542 0.51832,-0.12197 0.77311,-0.20347 v 1.84759 c -0.26564,0.11933 -0.59664,0.21696 -0.99272,0.29289 -0.39079,0.0815 -0.81941,0.12198 -1.28614,0.12198 -0.54239,0 -1.03081,-0.0868 -1.46473,-0.26035 -0.42862,-0.17913 -0.76782,-0.48551 -1.01732,-0.9197 -0.24421,-0.43947 -0.36645,-1.04986 -0.36645,-1.83118 v -4.38679 h -1.18824 v -1.04986 l 1.36736,-0.83 0.71623,-1.92088 h 1.58697 v 1.93702 h 2.54741 v 1.86372 h -2.54741 v 4.38679 c 0,0.3474 0.0976,0.60775 0.29316,0.78132 0.20055,0.16827 0.46381,0.25241 0.78925,0.25241 z"
         fill="#000000"
         id="path143"
         style="stroke-width:0.264583" /><path
         d="m 162.03888,-285.15149 c 0,0.70538 -0.17065,1.31868 -0.51249,1.83938 -0.34185,0.52096 -0.84111,0.92234 -1.49754,1.20465 -0.65114,0.28204 -1.44331,0.42307 -2.37649,0.42307 -0.41249,0 -0.81677,-0.027 -1.21285,-0.0812 -0.39053,-0.0542 -0.76756,-0.13309 -1.1311,-0.23601 -0.35824,-0.10848 -0.70008,-0.24156 -1.02552,-0.39899 v -2.34394 c 0.56409,0.24976 1.15014,0.47492 1.75789,0.67548 0.60775,0.20082 1.20994,0.30136 1.80684,0.30136 0.41222,0 0.74321,-0.0542 0.99298,-0.16299 0.2548,-0.10848 0.43947,-0.2577 0.55325,-0.44741 0.11403,-0.18997 0.17092,-0.40693 0.17092,-0.65114 0,-0.29845 -0.10028,-0.5535 -0.3011,-0.76517 -0.20082,-0.21167 -0.47731,-0.40958 -0.83,-0.59399 -0.3474,-0.18441 -0.74083,-0.38259 -1.1803,-0.59425 -0.27676,-0.13018 -0.57785,-0.28761 -0.90329,-0.47202 -0.3257,-0.18997 -0.63474,-0.42042 -0.9279,-0.69189 -0.29289,-0.27119 -0.53445,-0.59954 -0.72416,-0.98478 -0.18468,-0.39052 -0.27675,-0.85725 -0.27675,-1.39964 0,-0.71094 0.16271,-1.31868 0.48815,-1.82325 0.3257,-0.50453 0.78952,-0.88974 1.39171,-1.15562 0.60775,-0.27127 1.32398,-0.40693 2.14868,-0.40693 0.6186,0 1.2073,0.0732 1.7661,0.21974 0.56435,0.14108 1.15305,0.34727 1.76609,0.61854 l -0.81386,1.96147 c -0.54795,-0.22252 -1.03902,-0.39344 -1.4732,-0.51277 -0.43392,-0.12488 -0.87603,-0.18732 -1.32636,-0.18732 -0.31485,0 -0.5834,0.0516 -0.80592,0.15478 -0.22251,0.0976 -0.39052,0.23865 -0.50456,0.42307 -0.11403,0.17912 -0.17092,0.38814 -0.17092,0.6268 0,0.28204 0.0815,0.52096 0.24421,0.71622 0.16828,0.18997 0.41778,0.37439 0.74877,0.55351 0.33629,0.17886 0.75407,0.38788 1.25334,0.62654 0.60774,0.2876 1.1258,0.58869 1.55442,0.90355 0.43418,0.3093 0.76782,0.67548 1.00119,1.09855 0.23336,0.41777 0.34977,0.93874 0.34977,1.56263 z"
         fill="#000000"
         id="path144"
         style="stroke-width:0.264583" /><path
         d="m 149.86699,-291.11705 c 0.97102,0 1.75234,0.2659 2.34395,0.79772 0.59134,0.52625 0.88688,1.37265 0.88688,2.5392 v 5.93328 h -2.48232 v -5.31468 c 0,-0.65114 -0.11933,-1.14221 -0.35798,-1.4732 -0.23336,-0.331 -0.60219,-0.49636 -1.10675,-0.49636 -0.75962,0 -1.27794,0.2577 -1.5547,0.77311 -0.27675,0.51541 -0.41486,1.25889 -0.41486,2.23017 v 4.28096 h -2.48232 v -9.09928 h 1.89627 l 0.33364,1.1639 h 0.13837 c 0.19526,-0.31459 0.43683,-0.56965 0.72443,-0.76491 0.2929,-0.19553 0.61569,-0.3392 0.96838,-0.43154 0.35824,-0.0921 0.72707,-0.13837 1.10701,-0.13837 z"
         fill="#000000"
         id="path145"
         style="stroke-width:0.264583" /><path
         d="m 139.43632,-291.11705 c 0.84085,0 1.56528,0.16298 2.17303,0.48842 0.60775,0.32014 1.07685,0.7866 1.40785,1.39991 0.33099,0.61304 0.49662,1.36181 0.49662,2.24631 v 1.20438 h -5.8682 c 0.0273,0.70009 0.23628,1.25069 0.6268,1.65233 0.39608,0.39608 0.94404,0.59399 1.64412,0.59399 0.5805,0 1.11231,-0.0595 1.59518,-0.17913 0.48286,-0.11932 0.97922,-0.29845 1.48934,-0.5371 v 1.92087 c -0.45033,0.22225 -0.92234,0.38524 -1.41605,0.48816 -0.48843,0.10319 -1.08268,0.15478 -1.7825,0.15478 -0.91149,0 -1.72006,-0.16827 -2.42544,-0.50456 -0.69982,-0.33655 -1.25042,-0.84931 -1.65206,-1.53829 -0.39608,-0.68924 -0.59425,-1.55733 -0.59425,-2.60455 0,-1.06337 0.17912,-1.94787 0.53737,-2.65298 0.36354,-0.71094 0.8681,-1.24275 1.51368,-1.59517 0.64558,-0.35825 1.39726,-0.53737 2.25451,-0.53737 z m 0.0161,1.76609 c -0.48286,0 -0.88423,0.15478 -1.20438,0.46408 -0.31485,0.3093 -0.49662,0.79481 -0.54531,1.4568 h 3.48324 c -0.005,-0.3691 -0.0733,-0.69718 -0.20346,-0.98478 -0.12462,-0.28761 -0.31459,-0.51541 -0.56965,-0.68369 -0.2495,-0.16827 -0.56965,-0.25241 -0.96044,-0.25241 z"
         fill="#000000"
         id="path146"
         style="stroke-width:0.264583" /><path
         d="m 130.84663,-291.11705 c 1.02552,0 1.85287,0.39899 2.48232,1.19644 0.635,0.79772 0.95223,1.96691 0.95223,3.50785 0,1.03081 -0.14922,1.89891 -0.44767,2.60429 -0.29819,0.70009 -0.71067,1.22899 -1.23693,1.58724 -0.52626,0.35798 -1.13136,0.5371 -1.81504,0.5371 -0.43947,0 -0.81651,-0.0542 -1.13109,-0.16272 -0.31486,-0.11403 -0.58341,-0.25797 -0.80593,-0.43153 -0.22251,-0.17913 -0.41513,-0.36883 -0.57785,-0.56965 h -0.13017 c 0.0434,0.21696 0.0759,0.43947 0.0976,0.66728 0.0217,0.22807 0.0325,0.45032 0.0325,0.66754 v 3.67057 h -2.48232 v -13.10349 h 2.01851 l 0.35004,1.1803 h 0.11377 c 0.16272,-0.24421 0.3609,-0.46937 0.59426,-0.67574 0.23336,-0.20611 0.51276,-0.36883 0.8382,-0.48816 0.33099,-0.12488 0.71358,-0.18732 1.1475,-0.18732 z m -0.79746,1.98596 c -0.43418,0 -0.77867,0.0894 -1.03372,0.26855 -0.25506,0.17912 -0.44212,0.44768 -0.56145,0.80566 -0.11404,0.35824 -0.17648,0.81121 -0.18733,1.35916 v 0.26855 c 0,0.58606 0.0542,1.08268 0.16272,1.48961 0.11404,0.40693 0.30136,0.71596 0.56171,0.92763 0.26591,0.21166 0.62945,0.3175 1.09062,0.3175 0.37967,0 0.69162,-0.10584 0.93583,-0.3175 0.24421,-0.21167 0.42598,-0.5207 0.5453,-0.92763 0.12489,-0.41249 0.18733,-0.9144 0.18733,-1.50575 0,-0.88979 -0.13838,-1.55998 -0.41513,-2.0103 -0.27676,-0.45032 -0.70538,-0.67548 -1.28588,-0.67548 z"
         fill="#000000"
         id="path147"
         style="stroke-width:0.264583" /><path
         d="m 124.6649,-287.81267 c 0,0.91678 -0.11403,1.75233 -0.34184,2.50666 -0.22807,0.74877 -0.5752,1.39435 -1.04193,1.93701 -0.46117,0.54266 -1.04722,0.96044 -1.75789,1.25334 -0.71067,0.2876 -1.55178,0.43127 -2.52307,0.43127 -0.97102,0 -1.81213,-0.14367 -2.5228,-0.43127 -0.71093,-0.2929 -1.29963,-0.71068 -1.76609,-1.25334 -0.46144,-0.54266 -0.80592,-1.19089 -1.03373,-1.94521 -0.22781,-0.75406 -0.34184,-1.59253 -0.34184,-2.51487 0,-1.23163 0.20082,-2.30319 0.60219,-3.21468 0.40693,-0.91705 1.03108,-1.62772 1.87193,-2.13241 0.84111,-0.50462 1.91002,-0.7569 3.20675,-0.7569 1.29116,0 2.35214,0.25228 3.18214,0.7569 0.83555,0.50469 1.45415,1.21536 1.85579,2.13241 0.40693,0.91678 0.61039,1.9939 0.61039,3.23109 z m -8.68415,0 c 0,0.83 0.10319,1.54622 0.3093,2.14841 0.21166,0.5969 0.54001,1.05807 0.98477,1.38377 0.44503,0.32015 1.01997,0.48022 1.72535,0.48022 0.71623,0 1.29673,-0.16007 1.74175,-0.48022 0.44503,-0.3257 0.76783,-0.78687 0.96864,-1.38377 0.20611,-0.60219 0.30904,-1.31841 0.30904,-2.14841 0,-1.24804 -0.2331,-2.23018 -0.69983,-2.9464 -0.46672,-0.71623 -1.23428,-1.07421 -2.30319,-1.07421 -0.71094,0 -1.29143,0.16272 -1.74176,0.48842 -0.44476,0.32015 -0.77311,0.78131 -0.98477,1.38351 -0.20611,0.5969 -0.3093,1.31312 -0.3093,2.14868 z"
         fill="#000000"
         id="path148"
         style="stroke-width:0.264583" /></g></g></svg>
